<svg width="1073" height="520" viewBox="0 0 1073 520" fill="none" xmlns="http://www.w3.org/2000/svg">
<path fill-rule="evenodd" clip-rule="evenodd" d="M50 0C22.3858 0 0 22.3858 0 50V200C0 227.614 22.3858 250 50 250H477C492.803 250 510.461 250.888 521.512 262.185L535.393 276.373C546.194 287.415 547 304.554 547 320V470C547 497.614 569.386 520 597 520H1023C1050.61 520 1073 497.614 1073 470V320C1073 292.386 1050.61 270 1023 270H597C591.356 270 585.93 270.935 580.869 272.659C575.186 274.595 568.644 273.908 564.446 269.616C559.47 264.53 559.491 256.394 564.493 251.334L564.909 250.913C569.251 246.521 575.957 245.791 581.842 247.661C586.623 249.18 591.716 250 597 250H1023C1050.61 250 1073 227.614 1073 200V50C1073 22.3858 1050.61 0 1023 0H597C569.386 0 547 22.3858 547 50V200C547 208.138 548.944 215.822 552.393 222.612C555.069 227.881 554.876 234.48 550.722 238.683C546.154 243.304 538.686 243.285 534.143 238.64L529.821 234.222C524.297 228.576 523.519 220.004 525.464 212.349C526.467 208.399 527 204.262 527 200V50C527 22.3858 504.614 0 477 0H50Z" fill="black"/>
</svg>
