<svg width="335" height="250" viewBox="0 0 335 250" fill="none" xmlns="http://www.w3.org/2000/svg">
<path fill-rule="evenodd" clip-rule="evenodd" d="M0 15C0 6.71573 6.71573 0 15 0H320C328.284 0 335 6.71573 335 15V105C335 113.284 328.284 120 320 120H75C72.2386 120 70 122.239 70 125C70 127.761 72.2386 130 75 130H320C328.284 130 335 136.716 335 145V235C335 243.284 328.284 250 320 250H15C6.71574 250 0 243.284 0 235V145C0 136.716 6.71573 130 15 130H45C47.7614 130 50 127.761 50 125C50 122.239 47.7614 120 45 120H15C6.71574 120 0 113.284 0 105V15Z" fill="#121212"/>
</svg>
