<svg width="1073" height="520" viewBox="0 0 1073 520" fill="none" xmlns="http://www.w3.org/2000/svg">
<path fill-rule="evenodd" clip-rule="evenodd" d="M597 0C569.386 0 547 22.3858 547 50V200C547 219.278 547.78 241.659 534.228 255.369L532.698 256.917C519.052 270.723 496.412 270 477 270H50C22.3858 270 0 292.386 0 320V470C0 497.614 22.3858 520 50 520H477C504.614 520 527 497.614 527 470V320C527 314.776 526.199 309.739 524.713 305.005C522.903 299.241 523.606 292.698 527.854 288.401L528.282 287.967C533.379 282.811 541.712 282.833 546.781 288.015C550.849 292.173 551.476 298.487 549.615 303.998C547.919 309.022 547 314.404 547 320V470C547 497.614 569.386 520 597 520H1023C1050.61 520 1073 497.614 1073 470V320C1073 292.386 1050.61 270 1023 270H597C591.356 270 585.93 270.935 580.869 272.659C575.186 274.595 568.644 273.908 564.446 269.616C559.47 264.53 559.491 256.394 564.493 251.334L564.909 250.913C569.251 246.521 575.957 245.791 581.842 247.661C586.623 249.18 591.716 250 597 250H1023C1050.61 250 1073 227.614 1073 200V50C1073 22.3858 1050.61 0 1023 0H597Z" fill="black"/>
</svg>
