<svg width="1620" height="669" viewBox="0 0 1620 669" fill="none" xmlns="http://www.w3.org/2000/svg">
<path fill-rule="evenodd" clip-rule="evenodd" d="M546 50C546 22.3858 568.386 0 596 0H1005C1032.61 0 1055 22.3858 1055 50V459C1055 469.809 1056.79 481.266 1064.42 488.922L1071.7 496.231C1084.63 509.21 1105.68 509 1124 509H1570C1597.61 509 1620 531.386 1620 559V619C1620 646.614 1597.61 669 1570 669H1124C1096.39 669 1074 646.614 1074 619V559C1074 547.805 1072.25 535.894 1064.34 527.964L1058.24 521.836C1045.1 508.645 1023.62 509 1005 509H596C594.959 509 593.925 508.968 592.9 508.905C580.589 508.152 567.249 508.899 557.96 517.014C546.997 526.591 545.52 542.859 545.975 557.409C545.992 557.937 546 558.468 546 559V619C546 646.614 523.614 669 496 669H50C22.3858 669 0 646.614 0 619V559C0 531.386 22.3858 509 50 509H496C497.13 509 498.252 509.038 499.363 509.111C511.633 509.926 524.938 509.206 534.198 501.116C545.12 491.574 546.566 475.359 546.034 460.866C546.011 460.247 546 459.625 546 459V50Z" fill="black"/>
</svg>
