<svg width="1074" height="829" viewBox="0 0 1074 829" fill="none" xmlns="http://www.w3.org/2000/svg">
<path fill-rule="evenodd" clip-rule="evenodd" d="M528 50C528 22.3858 550.386 0 578 0H1024C1051.61 0 1074 22.3858 1074 50V110C1074 137.614 1051.61 160 1024 160H578C560.617 160 541.114 159.523 528.023 170.959L519.986 177.98C511.159 185.692 509 198.279 509 210V619C509 629.809 510.788 641.265 518.417 648.922L525.698 656.231C538.629 669.21 559.68 669 578 669H1024C1051.61 669 1074 691.386 1074 719V779C1074 806.614 1051.61 829 1024 829H578C550.386 829 528 806.614 528 779V719C528 707.805 526.246 695.894 518.345 687.964L512.239 681.836C499.097 668.644 477.621 669 459 669H50C22.3858 669 0 646.614 0 619V210C0 182.386 22.3858 160 50 160H459C459.177 160 459.353 160.001 459.53 160.003C477.355 160.188 497.479 160.986 510.904 149.258L516.478 144.388C525.924 136.136 528 122.543 528 110V50Z" fill="black"/>
</svg>
