<svg width="150" height="70" viewBox="0 0 150 70" fill="none" xmlns="http://www.w3.org/2000/svg">
<rect width="150" height="70" rx="35" fill="#0500FF"/>
<path opacity="0.4" d="M51.983 18.3335H38.0163C31.9497 18.3335 28.333 21.9502 28.333 28.0168V41.9668C28.333 48.0502 31.9497 51.6668 38.0163 51.6668H51.9663C58.033 51.6668 61.6497 48.0502 61.6497 41.9835V28.0168C61.6663 21.9502 58.0497 18.3335 51.983 18.3335Z" fill="white"/>
<path d="M56.367 32.6332C57.0337 32.6332 57.5837 32.0833 57.5837 31.4166C57.5837 30.7499 57.0337 30.1999 56.367 30.1999H50.3503L51.0003 24.3666C51.067 23.6999 50.6003 23.0999 49.917 23.0166C49.2503 22.9499 48.6503 23.4166 48.567 24.0999L47.8837 30.1999H43.167L43.817 24.3666C43.8837 23.6999 43.417 23.0999 42.7337 23.0166C42.067 22.9499 41.467 23.4166 41.3837 24.0999L40.717 30.1999H34.8337C34.167 30.1999 33.617 30.7499 33.617 31.4166C33.617 32.0833 34.167 32.6332 34.8337 32.6332H40.4503L39.917 37.3833H33.6337C32.967 37.3833 32.417 37.9333 32.417 38.5999C32.417 39.2666 32.967 39.8166 33.6337 39.8166H39.6503L39.0003 45.6499C38.9337 46.3166 39.4003 46.9166 40.0837 46.9999C40.1337 46.9999 40.167 46.9999 40.217 46.9999C40.8337 46.9999 41.3503 46.5332 41.4337 45.9166L42.117 39.8166H46.8503L46.2003 45.6499C46.1337 46.3166 46.6003 46.9166 47.2837 46.9999C47.3337 46.9999 47.367 46.9999 47.417 46.9999C48.0337 46.9999 48.5503 46.5332 48.6337 45.9166L49.317 39.8166H55.2003C55.867 39.8166 56.417 39.2666 56.417 38.5999C56.417 37.9333 55.867 37.3833 55.2003 37.3833H49.5837L50.117 32.6332H56.367ZM47.1003 37.3666H42.367L42.9003 32.6166H47.6337L47.1003 37.3666Z" fill="white"/>
<path opacity="0.4" d="M94.583 41.8501V28.1668C96.733 27.6168 98.333 25.6668 98.333 23.3501C98.333 20.5834 96.0997 18.3501 93.333 18.3501C90.5663 18.3501 88.333 20.5834 88.333 23.3501C88.333 25.6834 89.933 27.6168 92.083 28.1668V41.8501C89.933 42.4001 88.333 44.3501 88.333 46.6668C88.333 49.4334 90.5663 51.6668 93.333 51.6668C96.0997 51.6668 98.333 49.4334 98.333 46.6668C98.333 44.3334 96.733 42.4001 94.583 41.8501Z" fill="white"/>
<path d="M117.917 41.8498V25.8331C117.917 23.2998 115.867 21.2498 113.333 21.2498H108.45L110.8 19.2998C111.333 18.8498 111.4 18.0665 110.967 17.5331C110.517 16.9998 109.733 16.9331 109.2 17.3665L104.2 21.5331C103.917 21.7665 103.75 22.1165 103.75 22.4998C103.75 22.8831 103.917 23.2165 104.2 23.4665L109.2 27.6331C109.433 27.8331 109.717 27.9165 110 27.9165C110.35 27.9165 110.717 27.7665 110.967 27.4665C111.417 26.9331 111.333 26.1498 110.8 25.6998L108.45 23.7498H113.333C114.483 23.7498 115.417 24.6831 115.417 25.8331V41.8498C113.267 42.3998 111.667 44.3498 111.667 46.6665C111.667 49.4331 113.9 51.6665 116.667 51.6665C119.433 51.6665 121.667 49.4331 121.667 46.6665C121.667 44.3331 120.067 42.3998 117.917 41.8498Z" fill="white"/>
</svg>
