<svg width="70" height="70" viewBox="0 0 70 70" fill="none" xmlns="http://www.w3.org/2000/svg">
<rect width="70" height="70" rx="35" fill="#0500FF"/>
<path d="M41.6673 28.3335H28.334V41.6668H41.6673V28.3335Z" fill="white"/>
<path opacity="0.4" d="M23.334 51.6665C26.084 51.6665 28.334 49.4165 28.334 46.6665V41.6665H23.334C20.584 41.6665 18.334 43.9165 18.334 46.6665C18.334 49.4165 20.584 51.6665 23.334 51.6665Z" fill="white"/>
<path opacity="0.4" d="M23.334 28.3335H28.334V23.3335C28.334 20.5835 26.084 18.3335 23.334 18.3335C20.584 18.3335 18.334 20.5835 18.334 23.3335C18.334 26.0835 20.584 28.3335 23.334 28.3335Z" fill="white"/>
<path opacity="0.4" d="M41.666 28.3335H46.666C49.416 28.3335 51.666 26.0835 51.666 23.3335C51.666 20.5835 49.416 18.3335 46.666 18.3335C43.916 18.3335 41.666 20.5835 41.666 23.3335V28.3335Z" fill="white"/>
<path opacity="0.4" d="M46.666 51.6665C49.416 51.6665 51.666 49.4165 51.666 46.6665C51.666 43.9165 49.416 41.6665 46.666 41.6665H41.666V46.6665C41.666 49.4165 43.916 51.6665 46.666 51.6665Z" fill="white"/>
</svg>
