<svg width="150" height="70" viewBox="0 0 150 70" fill="none" xmlns="http://www.w3.org/2000/svg">
<rect width="150" height="70" rx="35" fill="#0500FF"/>
<path d="M123.333 38.75C125.404 38.75 127.083 37.0711 127.083 35C127.083 32.9289 125.404 31.25 123.333 31.25C121.262 31.25 119.583 32.9289 119.583 35C119.583 37.0711 121.262 38.75 123.333 38.75Z" fill="white"/>
<path d="M123.333 25.417C125.404 25.417 127.083 23.7381 127.083 21.667C127.083 19.5959 125.404 17.917 123.333 17.917C121.262 17.917 119.583 19.5959 119.583 21.667C119.583 23.7381 121.262 25.417 123.333 25.417Z" fill="white"/>
<path d="M123.333 52.083C125.404 52.083 127.083 50.4041 127.083 48.333C127.083 46.2619 125.404 44.583 123.333 44.583C121.262 44.583 119.583 46.2619 119.583 48.333C119.583 50.4041 121.262 52.083 123.333 52.083Z" fill="white"/>
<path d="M76.6667 38.75C78.7378 38.75 80.4167 37.0711 80.4167 35C80.4167 32.9289 78.7378 31.25 76.6667 31.25C74.5957 31.25 72.9167 32.9289 72.9167 35C72.9167 37.0711 74.5957 38.75 76.6667 38.75Z" fill="white"/>
<path opacity="0.4" d="M121.667 36.2503C122.35 36.2503 122.917 35.6837 122.917 35.0003C122.917 34.317 122.35 33.7503 121.667 33.7503H109.583V26.667C109.583 24.0337 110.7 22.917 113.333 22.917H121.667C122.35 22.917 122.917 22.3503 122.917 21.667C122.917 20.9837 122.35 20.417 121.667 20.417H113.333C109.3 20.417 107.083 22.6337 107.083 26.667V33.7503H78.3333C77.6499 33.7503 77.0833 34.317 77.0833 35.0003C77.0833 35.6837 77.6499 36.2503 78.3333 36.2503H107.083V43.3337C107.083 47.367 109.3 49.5837 113.333 49.5837H121.667C122.35 49.5837 122.917 49.017 122.917 48.3337C122.917 47.6503 122.35 47.0837 121.667 47.0837H113.333C110.7 47.0837 109.583 45.967 109.583 43.3337V36.2503H121.667Z" fill="white"/>
<path opacity="0.4" d="M39.9999 51.6663C49.2047 51.6663 56.6666 44.2044 56.6666 34.9997C56.6666 25.7949 49.2047 18.333 39.9999 18.333C30.7952 18.333 23.3333 25.7949 23.3333 34.9997C23.3333 44.2044 30.7952 51.6663 39.9999 51.6663Z" fill="white"/>
<path d="M33.3333 39.5834C33.0166 39.5834 32.7 39.4668 32.45 39.2168L29.1167 35.8835C28.6333 35.4002 28.6333 34.6001 29.1167 34.1167L32.45 30.7834C32.9333 30.3001 33.7333 30.3001 34.2166 30.7834C34.7 31.2667 34.7 32.0668 34.2166 32.5502L31.7666 35.0001L34.2166 37.4501C34.7 37.9334 34.7 38.7335 34.2166 39.2168C33.9666 39.4668 33.65 39.5834 33.3333 39.5834Z" fill="white"/>
<path d="M46.6667 39.5834C46.3501 39.5834 46.0334 39.4668 45.7834 39.2168C45.3001 38.7335 45.3001 37.9334 45.7834 37.4501L48.2334 35.0001L45.7834 32.5502C45.3001 32.0668 45.3001 31.2667 45.7834 30.7834C46.2667 30.3001 47.0667 30.3001 47.5501 30.7834L50.8834 34.1167C51.3667 34.6001 51.3667 35.4002 50.8834 35.8835L47.5501 39.2168C47.3001 39.4668 46.9834 39.5834 46.6667 39.5834Z" fill="white"/>
<path d="M38.3332 40.1333C38.1665 40.1333 37.9999 40.1 37.8499 40.0333C37.2165 39.7666 36.9165 39.0333 37.1999 38.3833L40.5332 30.5999C40.7999 29.9666 41.5332 29.6665 42.1665 29.9499C42.7999 30.2165 43.0999 30.95 42.8165 31.6L39.4832 39.3833C39.2832 39.8499 38.8165 40.1333 38.3332 40.1333Z" fill="white"/>
</svg>
