<svg width="70" height="70" viewBox="0 0 70 70" fill="none" xmlns="http://www.w3.org/2000/svg">
<rect width="70" height="70" rx="35" fill="#0500FF"/>
<path opacity="0.4" d="M50.6499 25.0334C50.6832 25.4334 50.6499 25.8501 50.5499 26.2667L44.9332 48.8167C44.5332 50.5 43.0332 51.6667 41.2999 51.6667H19.3999C16.8832 51.6667 15.0999 49.2001 15.8333 46.7834L22.8499 24.2334C23.3332 22.6667 24.7833 21.6001 26.4166 21.6001H46.9166C48.5166 21.6001 49.8166 22.5501 50.3666 23.8834C50.5333 24.2334 50.6166 24.6334 50.6499 25.0334Z" fill="white"/>
<path d="M52.3164 47.7C52.4831 49.85 50.7831 51.6667 48.6331 51.6667H41.2998C43.0331 51.6667 44.5331 50.5 44.9331 48.8166L50.5498 26.2667C50.6498 25.85 50.6831 25.4334 50.6498 25.0334L50.6665 25L52.3164 47.7Z" fill="white"/>
<path d="M30.1333 26.8834C30.0333 26.8834 29.9333 26.8667 29.8333 26.85C29.1666 26.6834 28.75 26.0167 28.9166 25.3334L30.6499 18.1334C30.8166 17.4667 31.4833 17.0667 32.1666 17.2167C32.8333 17.3834 33.25 18.05 33.0833 18.7334L31.35 25.9334C31.2166 26.5 30.6999 26.8834 30.1333 26.8834Z" fill="white"/>
<path d="M41.3004 26.8999C41.2171 26.8999 41.117 26.8999 41.0337 26.8665C40.367 26.7165 39.9337 26.0499 40.0671 25.3832L41.6337 18.1499C41.7837 17.4666 42.4504 17.0499 43.117 17.1832C43.7837 17.3332 44.217 17.9999 44.0837 18.6666L42.517 25.8999C42.4004 26.4999 41.8837 26.8999 41.3004 26.8999Z" fill="white"/>
<path d="M40.1663 36.25H26.833C26.1497 36.25 25.583 35.6833 25.583 35C25.583 34.3167 26.1497 33.75 26.833 33.75H40.1663C40.8497 33.75 41.4163 34.3167 41.4163 35C41.4163 35.6833 40.8497 36.25 40.1663 36.25Z" fill="white"/>
<path d="M38.5003 42.9167H25.167C24.4837 42.9167 23.917 42.3501 23.917 41.6667C23.917 40.9834 24.4837 40.4167 25.167 40.4167H38.5003C39.1837 40.4167 39.7503 40.9834 39.7503 41.6667C39.7503 42.3501 39.1837 42.9167 38.5003 42.9167Z" fill="white"/>
</svg>
