<svg width="164" height="70" viewBox="0 0 164 70" fill="none" xmlns="http://www.w3.org/2000/svg">
<rect width="164" height="70" rx="35" fill="#0500FF"/>
<path d="M137.332 38.75C139.403 38.75 141.082 37.0711 141.082 35C141.082 32.9289 139.403 31.25 137.332 31.25C135.261 31.25 133.582 32.9289 133.582 35C133.582 37.0711 135.261 38.75 137.332 38.75Z" fill="white"/>
<path d="M137.332 25.417C139.403 25.417 141.082 23.7381 141.082 21.667C141.082 19.5959 139.403 17.917 137.332 17.917C135.261 17.917 133.582 19.5959 133.582 21.667C133.582 23.7381 135.261 25.417 137.332 25.417Z" fill="white"/>
<path d="M137.332 52.083C139.403 52.083 141.082 50.4041 141.082 48.333C141.082 46.2619 139.403 44.583 137.332 44.583C135.261 44.583 133.582 46.2619 133.582 48.333C133.582 50.4041 135.261 52.083 137.332 52.083Z" fill="white"/>
<path d="M90.666 38.75C92.7371 38.75 94.416 37.0711 94.416 35C94.416 32.9289 92.7371 31.25 90.666 31.25C88.5949 31.25 86.916 32.9289 86.916 35C86.916 37.0711 88.5949 38.75 90.666 38.75Z" fill="white"/>
<path opacity="0.4" d="M135.665 36.2503C136.349 36.2503 136.915 35.6837 136.915 35.0003C136.915 34.317 136.349 33.7503 135.665 33.7503H123.582V26.667C123.582 24.0337 124.699 22.917 127.332 22.917H135.665C136.349 22.917 136.915 22.3503 136.915 21.667C136.915 20.9837 136.349 20.417 135.665 20.417H127.332C123.299 20.417 121.082 22.6337 121.082 26.667V33.7503H92.332C91.6487 33.7503 91.082 34.317 91.082 35.0003C91.082 35.6837 91.6487 36.2503 92.332 36.2503H121.082V43.3337C121.082 47.367 123.299 49.5837 127.332 49.5837H135.665C136.349 49.5837 136.915 49.017 136.915 48.3337C136.915 47.6503 136.349 47.0837 135.665 47.0837H127.332C124.699 47.0837 123.582 45.967 123.582 43.3337V36.2503H135.665Z" fill="white"/>
<path opacity="0.4" d="M49.078 13.1499H36.9235C30.4614 13.1499 28.0508 15.523 28.0508 21.8846V45.8152C28.0508 52.1768 30.4614 54.5499 36.9235 54.5499H49.078C55.5401 54.5499 57.9508 52.1768 57.9508 45.8152V21.8846C57.9508 15.523 55.5401 13.1499 49.078 13.1499Z" fill="white"/>
<path d="M29.0508 45.3501C28.4985 45.3501 28.0508 45.7978 28.0508 46.3501V49.4901C28.0508 53.5565 31.1991 56.8501 35.0861 56.8501H50.9155C54.8025 56.8501 57.9508 53.5565 57.9508 49.4901V46.3501C57.9508 45.7978 57.5031 45.3501 56.9508 45.3501H29.0508ZM52.1642 52.1765C51.8301 52.5077 51.3728 52.7101 50.9155 52.7101C50.4582 52.7101 50.0009 52.5077 49.6667 52.1765C49.3501 51.8269 49.1567 51.3485 49.1567 50.8701C49.1567 50.3917 49.3501 49.9133 49.6667 49.5637C50.3175 48.8829 51.4959 48.8829 52.1642 49.5637C52.4808 49.9133 52.6743 50.3917 52.6743 50.8701C52.6743 51.3485 52.4808 51.8269 52.1642 52.1765Z" fill="white"/>
<path d="M47.3133 35.5751H34.6633C34.1918 35.5751 33.8008 35.1841 33.8008 34.7126C33.8008 34.2411 34.1918 33.8501 34.6633 33.8501H47.3133C47.7848 33.8501 48.1758 34.2411 48.1758 34.7126C48.1758 35.1841 47.7848 35.5751 47.3133 35.5751Z" fill="white"/>
<path d="M42.7133 25.8002H34.6633C34.1918 25.8002 33.8008 25.4092 33.8008 24.9377C33.8008 24.4662 34.1918 24.0752 34.6633 24.0752H42.7133C43.1848 24.0752 43.5758 24.4662 43.5758 24.9377C43.5758 25.4092 43.1848 25.8002 42.7133 25.8002Z" fill="white"/>
<path d="M47.3133 20.6249H34.6633C34.1918 20.6249 33.8008 20.2339 33.8008 19.7624C33.8008 19.2909 34.1918 18.8999 34.6633 18.8999H47.3133C47.7848 18.8999 48.1758 19.2909 48.1758 19.7624C48.1758 20.2339 47.7848 20.6249 47.3133 20.6249Z" fill="white"/>
</svg>
