<svg width="1620" height="829" viewBox="0 0 1620 829" fill="none" xmlns="http://www.w3.org/2000/svg">
<path fill-rule="evenodd" clip-rule="evenodd" d="M1074 50C1074 22.3858 1096.39 0 1124 0H1570C1597.61 0 1620 22.3858 1620 50V110C1620 137.614 1597.61 160 1570 160H1124C1106.62 160 1087.11 159.523 1074.02 170.959L1065.99 177.98C1057.16 185.692 1055 198.279 1055 210V619C1055 629.809 1056.79 641.266 1064.42 648.922L1071.7 656.231C1084.63 669.21 1105.68 669 1124 669H1570C1597.61 669 1620 691.386 1620 719V779C1620 806.614 1597.61 829 1570 829H1124C1096.39 829 1074 806.614 1074 779V719C1074 707.805 1072.25 695.894 1064.34 687.964L1058.24 681.836C1045.1 668.644 1023.62 669 1005 669H596C594.959 669 593.925 668.968 592.9 668.905C580.589 668.152 567.249 668.899 557.96 677.014C546.997 686.591 545.52 702.859 545.975 717.409C545.992 717.937 546 718.468 546 719V779C546 806.614 523.614 829 496 829H50C22.3858 829 0 806.614 0 779V719C0 691.386 22.3858 669 50 669H496C497.13 669 498.252 669.038 499.364 669.111C511.633 669.926 524.938 669.206 534.198 661.116C545.12 651.574 546.566 635.359 546.034 620.867C546.011 620.247 546 619.625 546 619V210C546 182.386 568.386 160 596 160H1005C1005.18 160 1005.35 160.001 1005.53 160.003C1023.36 160.188 1043.48 160.986 1056.9 149.258L1062.48 144.388C1071.92 136.136 1074 122.543 1074 110V50Z" fill="black"/>
</svg>
