<svg width="1200" height="500" viewBox="0 0 1200 500" fill="none" xmlns="http://www.w3.org/2000/svg">
<path fill-rule="evenodd" clip-rule="evenodd" d="M0 50C0 22.3858 22.3858 0 50 0H340C367.614 0 390 22.3858 390 50V200C390 212.422 392.234 225.885 401.75 233.87L408.477 239.515C422.101 250.947 442.215 250 460 250H750C750.222 250 750.444 250.001 750.665 250.004C766.659 250.213 784.501 249.882 796.141 238.913L798.721 236.482C808.294 227.461 810 213.153 810 200V50C810 22.3858 832.386 0 860 0H1150C1177.61 0 1200 22.3858 1200 50V200C1200 227.614 1177.61 250 1150 250H860C845.252 250 829.042 250.859 818.309 260.973L810.24 268.578C801.936 276.403 800 288.59 800 300V450C800 477.614 777.614 500 750 500H460C432.386 500 410 477.614 410 450V300C410 287.941 407.732 274.927 398.495 267.176L390.567 260.524C377.143 249.26 357.524 250 340 250H50C22.3858 250 0 227.614 0 200V50Z" fill="black"/>
</svg>
