<svg width="120" height="70" viewBox="0 0 120 70" fill="none" xmlns="http://www.w3.org/2000/svg">
<rect width="120" height="70" rx="35" fill="#0500FF"/>
<path d="M49.9335 44.7332L47.2168 45.6499C46.4668 45.8999 45.8668 46.4832 45.6168 47.2499L44.7001 49.9666C43.9168 52.3166 40.6168 52.2666 39.8835 49.9166L36.8001 39.9999C36.2001 38.0332 38.0168 36.1999 39.9668 36.8166L49.9001 39.8999C52.2335 40.6332 52.2668 43.9499 49.9335 44.7332Z" fill="white"/>
<path opacity="0.4" d="M34.1663 49.9999C42.9108 49.9999 49.9997 42.9111 49.9997 34.1666C49.9997 25.4221 42.9108 18.3333 34.1663 18.3333C25.4218 18.3333 18.333 25.4221 18.333 34.1666C18.333 42.9111 25.4218 49.9999 34.1663 49.9999Z" fill="white"/>
<path d="M90.6499 23.6833L92.9999 28.3833C93.3166 29.0333 94.1666 29.6499 94.8832 29.7833L99.1333 30.4833C101.85 30.9333 102.483 32.8999 100.533 34.8666L97.2166 38.1833C96.6666 38.7333 96.3499 39.8166 96.5333 40.5999L97.4832 44.6999C98.2332 47.9333 96.4999 49.1999 93.6499 47.4999L89.6666 45.1333C88.9499 44.6999 87.7499 44.6999 87.0333 45.1333L83.0499 47.4999C80.1999 49.1833 78.4666 47.9333 79.2166 44.6999L80.1666 40.5999C80.3499 39.8333 80.0333 38.7499 79.4833 38.1833L76.1666 34.8666C74.2166 32.9166 74.8499 30.9499 77.5666 30.4833L81.8166 29.7833C82.5332 29.6666 83.3833 29.0333 83.6999 28.3833L86.0499 23.6833C87.2999 21.1333 89.3666 21.1333 90.6499 23.6833Z" fill="white"/>
<path opacity="0.4" d="M78.333 24.5833H68.333C67.6497 24.5833 67.083 24.0166 67.083 23.3333C67.083 22.6499 67.6497 22.0833 68.333 22.0833H78.333C79.0163 22.0833 79.583 22.6499 79.583 23.3333C79.583 24.0166 79.0163 24.5833 78.333 24.5833Z" fill="white"/>
<path opacity="0.4" d="M73.333 47.9167H68.333C67.6497 47.9167 67.083 47.3501 67.083 46.6667C67.083 45.9834 67.6497 45.4167 68.333 45.4167H73.333C74.0163 45.4167 74.583 45.9834 74.583 46.6667C74.583 47.3501 74.0163 47.9167 73.333 47.9167Z" fill="white"/>
<path opacity="0.4" d="M69.9997 36.25H68.333C67.6497 36.25 67.083 35.6833 67.083 35C67.083 34.3167 67.6497 33.75 68.333 33.75H69.9997C70.683 33.75 71.2497 34.3167 71.2497 35C71.2497 35.6833 70.683 36.25 69.9997 36.25Z" fill="white"/>
</svg>
