<svg width="70" height="70" viewBox="0 0 70 70" fill="none" xmlns="http://www.w3.org/2000/svg">
<rect width="70" height="70" rx="35" fill="#0500FF"/>
<path opacity="0.4" d="M51.6663 28.3335V41.9835C51.6663 48.0502 48.0497 51.6668 41.983 51.6668H28.0163C21.9497 51.6668 18.333 48.0502 18.333 41.9835V28.3502L51.6663 28.3335Z" fill="white"/>
<path d="M29.9999 44.5834C29.8166 44.5834 29.6166 44.5334 29.4499 44.45C28.1666 43.8 27.0666 42.8334 26.2666 41.6334C25.5999 40.6334 25.5999 39.35 26.2666 38.35C27.0666 37.15 28.1666 36.1834 29.4499 35.55C30.0666 35.2334 30.8166 35.5 31.1333 36.1167C31.4499 36.7334 31.1999 37.4834 30.5666 37.8C29.6666 38.25 28.8999 38.9334 28.3499 39.7667C28.2499 39.9167 28.2499 40.1167 28.3499 40.2834C28.8999 41.1167 29.6666 41.8 30.5666 42.25C31.1833 42.5667 31.4333 43.3167 31.1333 43.9334C30.8999 44.3334 30.4499 44.5834 29.9999 44.5834Z" fill="white"/>
<path d="M40.3504 44.5835C39.8837 44.5835 39.4504 44.3335 39.2337 43.9002C38.917 43.2835 39.167 42.5335 39.8004 42.2169C40.7004 41.7669 41.467 41.0835 42.017 40.2502C42.117 40.1002 42.117 39.9002 42.017 39.7335C41.467 38.9002 40.7004 38.2169 39.8004 37.7669C39.1837 37.4502 38.9337 36.7002 39.2337 36.0835C39.5504 35.4669 40.3004 35.2169 40.917 35.5169C42.2004 36.1669 43.3004 37.1335 44.1004 38.3335C44.767 39.3335 44.767 40.6169 44.1004 41.6169C43.3004 42.8169 42.2004 43.7835 40.917 44.4169C40.717 44.5335 40.5337 44.5835 40.3504 44.5835Z" fill="white"/>
<path d="M51.6663 28.0168V28.3335L18.333 28.3502V28.0168C18.333 21.9502 21.9497 18.3335 28.0163 18.3335H41.983C48.0497 18.3335 51.6663 21.9502 51.6663 28.0168Z" fill="white"/>
</svg>
