<svg width="164" height="70" viewBox="0 0 164 70" fill="none" xmlns="http://www.w3.org/2000/svg">
<rect width="164" height="70" rx="35" fill="#0500FF"/>
<path opacity="0.4" d="M37.7496 49.8501C37.6996 49.8501 37.6329 49.8834 37.5829 49.8834C34.3496 48.2834 31.7163 45.6334 30.0996 42.4001C30.0996 42.3501 30.1329 42.2834 30.1329 42.2334C32.1663 42.8334 34.2663 43.2834 36.3496 43.6334C36.7163 45.7334 37.1496 47.8167 37.7496 49.8501Z" fill="white"/>
<path opacity="0.4" d="M59.9004 42.4167C58.2504 45.7334 55.5004 48.4167 52.1504 50.0334C52.7837 47.9167 53.3171 45.7834 53.6671 43.6334C55.7671 43.2834 57.8337 42.8334 59.8671 42.2334C59.8504 42.3001 59.9004 42.3667 59.9004 42.4167Z" fill="white"/>
<path opacity="0.4" d="M60.0337 27.8501C57.9337 27.2168 55.8171 26.7001 53.6671 26.3335C53.3171 24.1835 52.8004 22.0501 52.1504 19.9668C55.6004 21.6168 58.3837 24.4001 60.0337 27.8501Z" fill="white"/>
<path opacity="0.4" d="M37.7501 20.1501C37.1501 22.1834 36.7168 24.2501 36.3668 26.3501C34.2168 26.6834 32.0835 27.2168 29.9668 27.8501C31.5835 24.5001 34.2668 21.7501 37.5835 20.1001C37.6335 20.1001 37.7001 20.1501 37.7501 20.1501Z" fill="white"/>
<path d="M50.8169 25.9835C46.9503 25.5502 43.0503 25.5502 39.1836 25.9835C39.6003 23.7002 40.1336 21.4168 40.8836 19.2168C40.9169 19.0835 40.9003 18.9835 40.9169 18.8502C42.2336 18.5335 43.5836 18.3335 45.0003 18.3335C46.4003 18.3335 47.7669 18.5335 49.0669 18.8502C49.0836 18.9835 49.0836 19.0835 49.1169 19.2168C49.8669 21.4335 50.4003 23.7002 50.8169 25.9835Z" fill="white"/>
<path d="M35.983 40.8164C33.683 40.3998 31.4163 39.8664 29.2163 39.1164C29.083 39.0831 28.983 39.0998 28.8497 39.0831C28.533 37.7664 28.333 36.4164 28.333 34.9998C28.333 33.5998 28.533 32.2331 28.8497 30.9331C28.983 30.9164 29.083 30.9164 29.2163 30.8831C31.433 30.1498 33.683 29.5998 35.983 29.1831C35.5663 33.0498 35.5663 36.9498 35.983 40.8164Z" fill="white"/>
<path d="M61.6666 34.9998C61.6666 36.4164 61.4666 37.7664 61.1499 39.0831C61.0166 39.0998 60.9166 39.0831 60.7833 39.1164C58.5666 39.8498 56.2999 40.3998 54.0166 40.8164C54.4499 36.9498 54.4499 33.0498 54.0166 29.1831C56.2999 29.5998 58.5833 30.1331 60.7833 30.8831C60.9166 30.9164 61.0166 30.9331 61.1499 30.9331C61.4666 32.2498 61.6666 33.5998 61.6666 34.9998Z" fill="white"/>
<path d="M50.8169 44.0166C50.4003 46.3166 49.8669 48.5833 49.1169 50.7833C49.0836 50.9166 49.0836 51.0166 49.0669 51.1499C47.7669 51.4666 46.4003 51.6666 45.0003 51.6666C43.5836 51.6666 42.2336 51.4666 40.9169 51.1499C40.9003 51.0166 40.9169 50.9166 40.8836 50.7833C40.1503 48.5666 39.6003 46.3166 39.1836 44.0166C41.1169 44.2333 43.0503 44.3833 45.0003 44.3833C46.9503 44.3833 48.9003 44.2333 50.8169 44.0166Z" fill="white"/>
<path d="M51.2719 41.2724C47.1034 41.7983 42.8959 41.7983 38.7275 41.2724C38.2015 37.1039 38.2015 32.8964 38.7275 28.7279C42.8959 28.202 47.1034 28.202 51.2719 28.7279C51.7978 32.8964 51.7978 37.1039 51.2719 41.2724Z" fill="white"/>
<path d="M132.334 38.75C134.405 38.75 136.084 37.0711 136.084 35C136.084 32.9289 134.405 31.25 132.334 31.25C130.263 31.25 128.584 32.9289 128.584 35C128.584 37.0711 130.263 38.75 132.334 38.75Z" fill="white"/>
<path d="M132.334 25.417C134.405 25.417 136.084 23.7381 136.084 21.667C136.084 19.5959 134.405 17.917 132.334 17.917C130.263 17.917 128.584 19.5959 128.584 21.667C128.584 23.7381 130.263 25.417 132.334 25.417Z" fill="white"/>
<path d="M132.334 52.083C134.405 52.083 136.084 50.4041 136.084 48.333C136.084 46.2619 134.405 44.583 132.334 44.583C130.263 44.583 128.584 46.2619 128.584 48.333C128.584 50.4041 130.263 52.083 132.334 52.083Z" fill="white"/>
<path d="M85.667 38.75C87.7381 38.75 89.417 37.0711 89.417 35C89.417 32.9289 87.7381 31.25 85.667 31.25C83.5959 31.25 81.917 32.9289 81.917 35C81.917 37.0711 83.5959 38.75 85.667 38.75Z" fill="white"/>
<path opacity="0.4" d="M130.667 36.2503C131.351 36.2503 131.917 35.6837 131.917 35.0003C131.917 34.317 131.351 33.7503 130.667 33.7503H118.584V26.667C118.584 24.0337 119.701 22.917 122.334 22.917H130.667C131.351 22.917 131.917 22.3503 131.917 21.667C131.917 20.9837 131.351 20.417 130.667 20.417H122.334C118.301 20.417 116.084 22.6337 116.084 26.667V33.7503H87.334C86.6507 33.7503 86.084 34.317 86.084 35.0003C86.084 35.6837 86.6507 36.2503 87.334 36.2503H116.084V43.3337C116.084 47.367 118.301 49.5837 122.334 49.5837H130.667C131.351 49.5837 131.917 49.017 131.917 48.3337C131.917 47.6503 131.351 47.0837 130.667 47.0837H122.334C119.701 47.0837 118.584 45.967 118.584 43.3337V36.2503H130.667Z" fill="white"/>
</svg>
