<svg width="335" height="380" viewBox="0 0 335 380" fill="none" xmlns="http://www.w3.org/2000/svg">
<path fill-rule="evenodd" clip-rule="evenodd" d="M0 15C0 6.71573 6.71573 0 15 0H320C328.284 0 335 6.71573 335 15V105C335 113.284 328.284 120 320 120H290C287.239 120 285 122.239 285 125C285 127.761 287.239 130 290 130H320C328.284 130 335 136.716 335 145V235C335 243.284 328.284 250 320 250H75C72.2386 250 70 252.239 70 255C70 257.761 72.2386 260 75 260H320C328.284 260 335 266.716 335 275V365C335 373.284 328.284 380 320 380H15C6.71574 380 0 373.284 0 365V275C0 266.716 6.71573 260 15 260H45C47.7614 260 50 257.761 50 255C50 252.239 47.7614 250 45 250H15C6.71574 250 0 243.284 0 235V145C0 136.716 6.71573 130 15 130H260C262.761 130 265 127.761 265 125C265 122.239 262.761 120 260 120H15C6.71574 120 0 113.284 0 105V15Z" fill="#121212"/>
</svg>
