<svg width="1073" height="520" viewBox="0 0 1073 520" fill="none" xmlns="http://www.w3.org/2000/svg">
<path fill-rule="evenodd" clip-rule="evenodd" d="M0 50C0 22.3858 22.3858 0 50 0H477C504.614 0 527 22.3858 527 50V200C527 215.284 527.857 232.215 538.545 243.14L552.962 257.877C563.903 269.061 581.354 270 597 270H1023C1050.61 270 1073 292.386 1073 320V470C1073 497.614 1050.61 520 1023 520H597C569.386 520 547 497.614 547 470V320C547 314.404 547.919 309.022 549.615 303.998C551.476 298.487 550.849 292.173 546.781 288.015C541.712 282.833 533.379 282.811 528.283 287.967L527.854 288.401C523.606 292.698 522.903 299.241 524.713 305.006C526.199 309.739 527 314.776 527 320V470C527 497.614 504.614 520 477 520H50C22.3858 520 0 497.614 0 470V320C0 292.386 22.3858 270 50 270H477C485.116 270 492.78 271.934 499.557 275.365C505.041 278.142 511.927 277.93 516.248 273.559C520.82 268.933 520.839 261.497 516.292 256.848L512.381 252.85C506.684 247.027 497.784 246.218 489.912 248.317C485.793 249.415 481.465 250 477 250H50C22.3858 250 0 227.614 0 200V50Z" fill="black"/>
</svg>
