<svg width="1073" height="520" viewBox="0 0 1073 520" fill="none" xmlns="http://www.w3.org/2000/svg">
<path fill-rule="evenodd" clip-rule="evenodd" d="M50 0C22.3858 0 0 22.3858 0 50V200C0 227.614 22.3858 250 50 250H477C481.465 250 485.794 249.415 489.913 248.317C497.784 246.218 506.684 247.027 512.381 252.85L516.292 256.848C520.839 261.496 520.82 268.933 516.248 273.559C511.927 277.93 505.04 278.142 499.556 275.365C492.779 271.933 485.116 270 477 270H50C22.3858 270 0 292.386 0 320V470C0 497.614 22.3858 520 50 520H477C504.614 520 527 497.614 527 470V320C527 304.939 527.97 288.283 538.558 277.572L554.085 261.863C564.81 251.013 581.743 250 597 250H1023C1050.61 250 1073 227.614 1073 200V50C1073 22.3858 1050.61 0 1023 0H597C569.386 0 547 22.3858 547 50V200C547 208.138 548.944 215.822 552.393 222.612C555.069 227.881 554.876 234.48 550.722 238.683C546.154 243.304 538.686 243.284 534.143 238.64L529.821 234.222C524.298 228.576 523.519 220.004 525.464 212.348C526.467 208.399 527 204.262 527 200V50C527 22.3858 504.614 0 477 0H50Z" fill="black"/>
</svg>
